<svg id="visual" viewBox="0 0 900 600" width="900" height="600" xmlns="http://www.w3.org/2000/svg" xmlns:xlink="http://www.w3.org/1999/xlink" version="1.1"><path d="M0 530L30 530.7C60 531.3 120 532.7 180 535.7C240 538.7 300 543.3 360 540C420 536.7 480 525.3 540 521.7C600 518 660 522 720 527.8C780 533.7 840 541.3 870 545.2L900 549L900 601L870 601C840 601 780 601 720 601C660 601 600 601 540 601C480 601 420 601 360 601C300 601 240 601 180 601C120 601 60 601 30 601L0 601Z" fill="#59adab" stroke-linecap="round" stroke-linejoin="miter"></path></svg>